<svg width="230" height="230" viewBox="0 0 230 230" fill="none" xmlns="http://www.w3.org/2000/svg">
<g filter="url(#filter0_d)">
<circle cx="115" cy="110" r="85" fill="url(#paint0_linear)"/>
</g>
<path d="M115 56C85.165 56 61 80.165 61 110C61 139.835 85.165 164 115 164C144.835 164 169 139.835 169 110C168.973 80.192 144.808 56.027 115 56ZM115 159.68C87.568 159.68 65.32 137.432 65.32 110C65.32 82.568 87.568 60.32 115 60.32C142.432 60.32 164.68 82.568 164.68 110C164.653 137.432 142.432 159.653 115 159.68Z" fill="white"/>
<path d="M115 66.8C91.132 66.8 71.8 86.132 71.8 110C71.8 133.868 91.132 153.2 115 153.2C138.868 153.2 158.2 133.868 158.2 110C158.173 86.159 138.841 66.827 115 66.8ZM117.16 148.772V144.56C117.16 143.372 116.188 142.4 115 142.4C113.812 142.4 112.84 143.372 112.84 144.56V148.772C93.103 147.665 77.335 131.897 76.228 112.16H80.44C81.628 112.16 82.6 111.188 82.6 110C82.6 108.812 81.628 107.84 80.44 107.84H76.228C77.335 88.103 93.103 72.335 112.84 71.228V75.44C112.84 76.628 113.812 77.6 115 77.6C116.188 77.6 117.16 76.628 117.16 75.44V71.228C136.897 72.335 152.665 88.103 153.772 107.84H149.56C148.372 107.84 147.4 108.812 147.4 110C147.4 111.188 148.372 112.16 149.56 112.16H153.772C152.665 131.897 136.897 147.665 117.16 148.772Z" fill="white"/>
<path d="M138.76 107.84H134.305C133.279 98.822 126.178 91.721 117.16 90.695V86.24C117.16 85.052 116.188 84.08 115 84.08C113.812 84.08 112.84 85.052 112.84 86.24V90.695C103.822 91.721 96.721 98.822 95.695 107.84H91.24C90.052 107.84 89.08 108.812 89.08 110C89.08 111.188 90.052 112.16 91.24 112.16H95.695C96.721 121.178 103.822 128.279 112.84 129.305V133.76C112.84 134.948 113.812 135.92 115 135.92C116.188 135.92 117.16 134.948 117.16 133.76V129.305C126.178 128.279 133.279 121.178 134.305 112.16H138.76C139.948 112.16 140.92 111.188 140.92 110C140.92 108.812 139.948 107.84 138.76 107.84ZM117.16 124.958V120.8C117.16 119.612 116.188 118.64 115 118.64C113.812 118.64 112.84 119.612 112.84 120.8V124.958C106.225 123.986 101.014 118.802 100.042 112.16H104.2C105.388 112.16 106.36 111.188 106.36 110C106.36 108.812 105.388 107.84 104.2 107.84H100.042C101.014 101.225 106.198 96.014 112.84 95.042V99.2C112.84 100.388 113.812 101.36 115 101.36C116.188 101.36 117.16 100.388 117.16 99.2V95.042C123.775 96.014 128.986 101.198 129.958 107.84H125.8C124.612 107.84 123.64 108.812 123.64 110C123.64 111.188 124.612 112.16 125.8 112.16H129.958C128.986 118.775 123.775 123.986 117.16 124.958Z" fill="white"/>
<defs>
<filter id="filter0_d" x="0" y="0" width="230" height="230" filterUnits="userSpaceOnUse" color-interpolation-filters="sRGB">
<feFlood flood-opacity="0" result="BackgroundImageFix"/>
<feColorMatrix in="SourceAlpha" type="matrix" values="0 0 0 0 0 0 0 0 0 0 0 0 0 0 0 0 0 0 127 0"/>
<feOffset dy="5"/>
<feGaussianBlur stdDeviation="15"/>
<feColorMatrix type="matrix" values="0 0 0 0 0.0470588 0 0 0 0 0 0 0 0 0 0.180392 0 0 0 0.3 0"/>
<feBlend mode="normal" in2="BackgroundImageFix" result="effect1_dropShadow"/>
<feBlend mode="normal" in="SourceGraphic" in2="effect1_dropShadow" result="shape"/>
</filter>
<linearGradient id="paint0_linear" x1="62" y1="175" x2="168" y2="45" gradientUnits="userSpaceOnUse">
<stop stop-color="#411881"/>
<stop offset="1" stop-color="#9B2BDC"/>
</linearGradient>
</defs>
</svg>
