<svg width="223" height="188" viewBox="0 0 223 188" fill="none" xmlns="http://www.w3.org/2000/svg">
<g clip-path="url(#clip0)">
<path d="M137.999 104.694C137.877 104.776 137.755 104.857 137.632 104.98C137.755 104.857 137.877 104.776 137.999 104.694Z" fill="white"/>
<path d="M155.366 64.5306C155.366 64.6939 155.407 64.8571 155.407 65.0204C155.407 64.8571 155.366 64.6939 155.366 64.5306Z" fill="white"/>
<path d="M140.486 102.653C140.078 103.02 139.63 103.388 139.181 103.755C139.63 103.388 140.078 103.02 140.486 102.653Z" fill="white"/>
<path d="M136.246 105.959C136.205 106 136.165 106 136.124 106.041C136.165 106 136.205 106 136.246 105.959Z" fill="white"/>
<path d="M155.529 66.3265C155.611 67.3061 155.652 68.2857 155.652 69.3061C155.652 69.7959 155.652 70.2857 155.611 70.7755C155.611 70.3265 155.652 69.8367 155.652 69.3878C155.611 68.3674 155.57 67.3469 155.529 66.3265Z" fill="white"/>
<path d="M140.567 102.571C149.414 94.7755 155.162 83.5102 155.611 70.9388C155.325 78.9388 152.879 86.449 148.884 92.8163C146.56 96.4898 143.788 99.7551 140.567 102.571Z" fill="white"/>
<path d="M111.5 13.4694C142.28 13.4694 167.352 38.5306 167.352 69.3877C167.352 80.8571 163.887 91.551 157.935 100.449L168.534 109.347C176.402 98.0816 181.009 84.3673 181.009 69.6327C181.05 31.2245 149.863 0 111.5 0C73.1375 0 41.9908 31.2245 41.9908 69.5918C41.9908 84.3673 46.5976 98.0408 54.4658 109.306L65.0654 100.408C59.1133 91.5102 55.6481 80.8571 55.6481 69.3469C55.6481 38.5714 80.7203 13.4694 111.5 13.4694Z" fill="white"/>
<path d="M111.5 125.306C97.435 125.306 84.5524 120.082 74.7274 111.429L53.6504 132.286L63.72 142.49L76.6027 129.755C86.8762 135.755 98.7804 139.184 111.5 139.184C124.219 139.184 136.124 135.755 146.397 129.755L159.28 142.49L169.349 132.286L148.272 111.429C138.447 120.082 125.565 125.306 111.5 125.306Z" fill="white"/>
<path d="M155.529 66.3265C155.488 65.8776 155.488 65.4694 155.448 65.0204C155.448 64.8571 155.407 64.6939 155.407 64.5306C155.325 63.9184 155.285 63.3061 155.162 62.7347C155.162 62.6939 155.162 62.6531 155.162 62.6122C152.268 43.9184 137.632 29.102 119.083 25.8775V40.6122C131.721 44.0408 141.057 55.5918 141.057 69.3061C141.057 85.7143 127.726 99.0204 111.378 99.0204C94.989 99.0204 81.6987 85.6735 81.6987 69.3061C81.6987 55.4286 91.2383 43.7551 104.121 40.4898V25.8775C83.3702 29.4694 67.5115 47.5918 67.5115 69.3878C67.5115 93.7551 87.2839 113.551 111.622 113.551C120.713 113.551 129.193 110.776 136.246 106.041C136.287 106 136.328 106 136.368 105.959C136.858 105.633 137.306 105.306 137.754 104.98C137.877 104.898 137.999 104.816 138.121 104.694C138.529 104.367 138.937 104.082 139.304 103.755C139.752 103.388 140.16 103.02 140.608 102.653C140.649 102.653 140.649 102.612 140.69 102.612C143.91 99.7959 146.683 96.4898 148.966 92.8571C152.961 86.449 155.407 78.9796 155.692 70.9796C155.692 70.9388 155.692 70.8571 155.692 70.8163C155.692 70.3265 155.733 69.8367 155.733 69.3469C155.611 68.2857 155.57 67.3061 155.529 66.3265Z" fill="white"/>
<path d="M8.03126 187.633L6.52285 187.551L5.99287 187.51C5.87057 187.51 5.7075 187.469 5.54442 187.429C5.42212 187.388 5.38135 187.388 5.34059 187.347C5.25905 187.347 5.17751 187.306 5.13675 187.306C3.4245 186.857 2.11993 185.878 1.22303 184.286C0.407678 182.939 0 181.469 0 179.918C0 178.327 0.122303 176.98 0.36691 175.918C0.611517 174.816 1.05996 173.837 1.67148 173.02C2.36453 172.082 3.26143 171.429 4.28062 171.061C4.89214 170.857 5.50366 170.694 6.11517 170.612C6.76746 170.531 9.41737 170.449 14.0649 170.449V173.388H8.15356C7.01207 173.388 6.07441 173.714 5.42212 174.327C4.89214 174.857 4.48446 175.592 4.28062 176.531C4.07678 177.51 3.95448 178.531 3.95448 179.551C3.95448 180.694 4.11755 181.673 4.40293 182.449C4.8106 183.51 5.50366 184.163 6.40055 184.449L6.76746 184.531L7.21591 184.571L14.1057 184.612V187.592H8.03126V187.633Z" fill="white"/>
<path d="M31.1467 187.633L29.5567 183.51H22.0962L20.6286 187.633H16.7964L24.0123 170.449H27.8445L35.1827 187.633H31.1467ZM25.8061 173.918L23.2785 180.49H28.4152L25.8061 173.918Z" fill="white"/>
<path d="M53.1612 179.265C52.5904 180.245 51.7343 180.898 50.6744 181.184L50.2259 181.265L49.4921 181.469C49.1659 181.551 48.8806 181.551 48.6767 181.551C48.5544 181.551 48.3914 181.592 48.2283 181.592L42.3985 181.551V187.592H38.8109V170.408H46.6383C47.6575 170.408 48.5952 170.449 49.4513 170.571C50.2667 170.653 51.0413 170.939 51.7751 171.347C52.5089 171.755 53.0389 172.408 53.4873 173.265C53.895 174.122 54.0989 175.102 54.0989 176.163C54.0173 177.306 53.7319 178.327 53.1612 179.265ZM48.9621 173.959C48.4321 173.673 47.6168 173.51 46.5568 173.51H42.3985V178.571H46.7606C47.6983 178.571 48.4729 178.408 49.0436 178.082C49.6959 177.633 50.0628 176.98 50.0628 176.041C50.0221 175.061 49.6552 174.408 48.9621 173.959Z" fill="white"/>
<path d="M72.526 186.531C71.5476 187.265 66.9001 187.633 58.5834 187.633V184.531H67.5931C68.4492 184.531 69.1015 184.408 69.5092 184.204C70.0799 183.918 70.4061 183.51 70.4061 183.02C70.4061 182.49 70.3653 182.122 70.3246 181.959C70.3246 181.796 70.243 181.633 70.1615 181.51C70.1207 181.388 70.0392 181.265 69.9576 181.184C69.55 180.776 68.3677 180.571 66.4516 180.571H65.6363L64.454 180.612C62.6602 180.612 61.3556 180.449 60.4995 180.122C58.7057 179.429 57.8088 178.041 57.8088 175.959C57.8088 173.878 58.3796 172.408 59.4803 171.551C60.4587 170.816 61.9264 170.408 63.8425 170.408H73.3821V173.51H64.4948C63.6386 173.51 62.9456 173.673 62.4564 174C61.9264 174.367 61.6818 174.898 61.6818 175.592C61.6818 176.286 61.8856 176.816 62.3341 177.143C62.7825 177.429 64.9024 177.592 68.7346 177.592L70.0799 177.633L70.6507 177.714L71.1399 177.796C71.5068 177.878 71.8737 178 72.2406 178.245L72.6483 178.571L73.1783 179.02C73.5452 179.347 73.8306 179.878 73.9937 180.531C74.1567 181.184 74.2383 182.122 74.2383 183.347C74.1975 184.653 73.6675 185.714 72.526 186.531Z" fill="white"/>
<path d="M93.8883 183.673C93.6845 184.408 93.236 185.265 92.543 186.204C92.2168 186.653 91.6869 186.98 90.9123 187.265L89.8115 187.592C89.4039 187.673 89.037 187.714 88.67 187.714L86.6317 187.796L84.6748 187.714C84.3487 187.714 84.0225 187.673 83.6964 187.633C83.411 187.633 83.0033 187.51 82.4733 187.306C81.6988 187.02 81.1688 186.694 80.8426 186.286C80.598 186 80.3534 185.633 80.1088 185.224C79.905 184.857 79.7011 184.531 79.5788 184.204C79.3342 183.592 79.2119 182.816 79.2119 181.918V170.367H82.8402V180.694C82.8402 182.245 83.0849 183.347 83.5741 183.918C84.1856 184.653 85.2048 184.98 86.6724 184.98C88.1401 184.98 89.1593 184.612 89.7708 183.918C90.26 183.265 90.5454 178.735 90.5454 170.367H94.1329V180.776C94.0922 182.122 94.0106 183.061 93.8883 183.673Z" fill="white"/>
<path d="M106.241 187.633C103.876 187.633 102.205 187.061 101.145 185.918C100.126 184.776 99.5958 179.592 99.5958 170.449H103.183V179.878L103.224 180.939L103.265 182.163C103.346 183.184 103.795 183.878 104.569 184.286C105.181 184.653 107.464 184.816 111.378 184.816V187.673H106.241V187.633Z" fill="white"/>
<path d="M122.589 187.633L121.08 187.551L120.55 187.51C120.428 187.51 120.265 187.469 120.102 187.429C119.98 187.388 119.939 187.388 119.898 187.347C119.817 187.347 119.735 187.306 119.694 187.306C117.982 186.857 116.678 185.878 115.781 184.286C115.414 183.633 115.128 182.939 114.925 182.163C114.721 181.429 114.598 180.694 114.598 179.837C114.598 178.245 114.721 176.939 114.965 175.837C115.21 174.735 115.658 173.755 116.27 172.939C116.963 172 117.86 171.347 118.879 170.98C119.327 170.816 119.939 170.653 120.714 170.531C121.407 170.449 124.057 170.367 128.663 170.367V173.347H122.752C120.061 173.347 118.675 174.694 118.675 177.347H128.663V180.327H118.675C118.675 181.02 118.716 181.592 118.838 182.041C118.879 182.286 118.961 182.531 119.042 182.776C119.124 182.939 119.246 183.143 119.45 183.388L120.102 184C120.306 184.163 120.55 184.286 120.877 184.367C121.203 184.449 121.488 184.531 121.774 184.531L128.663 184.571V187.551H122.589V187.633Z" fill="white"/>
<path d="M150.556 187.633L149.047 187.551L148.517 187.51C148.395 187.51 148.232 187.469 148.069 187.429C147.946 187.388 147.906 187.388 147.865 187.347C147.783 187.347 147.702 187.306 147.661 187.306C145.949 186.857 144.644 185.878 143.747 184.286C142.973 182.898 142.565 181.469 142.565 179.878C142.565 178.286 142.687 176.939 142.932 175.878C143.177 174.776 143.625 173.796 144.237 172.98C144.93 172.041 145.826 171.388 146.846 171.02C147.457 170.816 148.069 170.653 148.68 170.571C149.333 170.49 151.982 170.408 156.63 170.408V173.347H150.719C149.577 173.347 148.639 173.673 147.987 174.286C147.457 174.816 147.05 175.551 146.846 176.49C146.642 177.469 146.52 178.49 146.52 179.51C146.52 180.653 146.683 181.633 146.968 182.408C147.376 183.469 148.069 184.122 148.966 184.408L149.333 184.49L149.781 184.531L156.671 184.571V187.551H150.556V187.633Z" fill="white"/>
<path d="M175.628 185.714C174.935 186.449 174.079 187.02 172.978 187.388C171.918 187.755 170.613 187.959 169.146 187.959C166.251 187.959 164.091 187.184 162.664 185.673C161.278 184.163 160.544 181.918 160.544 178.939C160.544 176.041 161.237 173.837 162.664 172.327C164.05 170.816 166.007 170.041 168.493 170.041C170.98 170.041 172.856 170.408 174.16 171.102C175.628 171.918 176.647 173.265 177.218 175.143C177.381 175.796 177.544 176.531 177.625 177.347C177.707 178.204 177.788 179.143 177.788 180.204C177.748 182.408 177.014 184.204 175.628 185.714ZM172.856 174.898C172.081 173.673 170.817 173.102 169.146 173.102C167.515 173.102 166.292 173.714 165.477 174.898C164.824 175.918 164.457 177.102 164.457 178.49C164.457 179.959 164.62 181.184 164.906 182.286C165.028 182.776 165.232 183.265 165.517 183.714C165.844 184.163 166.251 184.449 166.74 184.653L167.923 184.98C168.412 185.061 169.146 185.143 170.124 185.143C171.062 185.143 171.959 184.531 172.774 183.347C173.426 182.327 173.752 180.898 173.752 179.184C173.793 177.265 173.467 175.837 172.856 174.898Z" fill="white"/>
<path d="M194.136 187.633L190.345 180.898H186.105V187.633H182.518V170.449H191.364H192.261L192.913 170.571L193.403 170.653C193.566 170.653 193.647 170.653 193.729 170.694C193.81 170.694 194.014 170.776 194.299 170.857C195.319 171.102 196.093 171.714 196.623 172.694C197.112 173.551 197.357 174.612 197.357 175.796C197.357 176.98 197.072 177.959 196.542 178.816C196.012 179.633 195.156 180.204 193.933 180.531L198.172 187.714H194.136V187.633ZM193.199 174.082C192.75 173.714 191.853 173.51 190.549 173.51H186.146V177.878H190.549C191.853 177.878 192.71 177.673 193.158 177.306C193.566 176.898 193.769 176.367 193.769 175.673C193.769 174.939 193.566 174.449 193.199 174.082Z" fill="white"/>
<path d="M217.211 179.265C216.64 180.245 215.784 180.898 214.724 181.184L214.276 181.265L213.542 181.469C213.216 181.551 212.93 181.551 212.727 181.551C212.604 181.551 212.441 181.592 212.278 181.592L206.448 181.551V187.592H202.861V170.408H210.688C211.707 170.408 212.645 170.449 213.501 170.571C214.316 170.653 215.091 170.939 215.825 171.347C216.559 171.755 217.089 172.408 217.537 173.265C217.945 174.122 218.149 175.102 218.149 176.163C218.067 177.306 217.782 178.327 217.211 179.265ZM213.012 173.959C212.482 173.673 211.667 173.51 210.607 173.51H206.448V178.571H210.77C211.707 178.571 212.482 178.408 213.053 178.082C213.705 177.633 214.072 176.98 214.072 176.041C214.031 175.061 213.705 174.408 213.012 173.959Z" fill="white"/>
<path d="M220.187 187.633V184.653H223.041V187.633H220.187Z" fill="white"/>
</g>
<defs>
<clipPath id="clip0">
<rect width="223" height="188" fill="white"/>
</clipPath>
</defs>
</svg>
