<svg width="100" height="103" viewBox="0 0 100 103" fill="none" xmlns="http://www.w3.org/2000/svg">
<g clip-path="url(#clip0)">
<path d="M99.9799 23.6111C99.9799 23.5709 99.9799 23.5306 99.9598 23.4702C99.9195 23.3494 99.8792 23.2488 99.8189 23.128C99.7987 23.0878 99.7585 23.0676 99.7383 23.0274C99.6981 22.967 99.6377 22.8865 99.5974 22.8261C99.5572 22.7858 99.5169 22.7657 99.4767 22.7456C99.4163 22.7053 99.3559 22.6449 99.2955 22.6047H99.2754L87.5 15.8615C87.0572 15.62 86.5338 15.62 86.091 15.8615L74.3156 22.6047H74.2955C74.2351 22.6449 74.1747 22.6852 74.1143 22.7456C74.0741 22.7657 74.0338 22.806 74.0137 22.8261C73.9533 22.8865 73.9131 22.9469 73.8728 23.0274C73.8527 23.0676 73.8124 23.0878 73.7923 23.128C73.7319 23.2287 73.6916 23.3494 73.6514 23.4702C73.6312 23.5105 73.6514 23.5507 73.6312 23.591C73.6111 23.6715 73.6111 23.752 73.591 23.8325V26.711L63.124 20.149C63.1441 20.0684 63.1441 20.0081 63.1441 19.9275V8.15217C63.1441 8.07166 63.124 7.99114 63.1039 7.93076C63.1039 7.8905 63.1039 7.85024 63.0837 7.78986C63.0435 7.66908 63.0032 7.56844 62.9428 7.44767C62.9227 7.40741 62.8825 7.36715 62.8422 7.32689C62.8019 7.26651 62.7617 7.20612 62.7214 7.16586C62.6812 7.1256 62.6409 7.08535 62.5805 7.06522C62.5403 7.02496 62.4799 6.9847 62.4195 6.94445V6.92432L50.7045 0.181159C50.2617 -0.0603865 49.7383 -0.0603865 49.2955 0.181159L37.5201 6.92432C37.4597 6.96457 37.4195 7.00483 37.3591 7.04509C37.3188 7.08535 37.2585 7.10548 37.2182 7.14573C37.1779 7.20612 37.1176 7.26651 37.0773 7.32689C37.037 7.36715 37.0169 7.40741 36.9968 7.44767C36.9364 7.54831 36.8961 7.66908 36.8559 7.78986C36.8358 7.83011 36.8559 7.87037 36.8358 7.91063C36.8156 7.99114 36.8156 8.07166 36.7955 8.15217V19.9275C36.7955 20.0081 36.8156 20.0684 36.8156 20.149L26.3486 26.711V23.8325C26.3486 23.752 26.3285 23.6715 26.3084 23.6111C26.3084 23.5709 26.3084 23.5306 26.2882 23.4702C26.248 23.3494 26.2077 23.2488 26.1473 23.128C26.1272 23.0878 26.087 23.0676 26.0668 23.0274C26.0266 22.967 25.9662 22.8865 25.9259 22.8261C25.8857 22.7858 25.8454 22.7657 25.8051 22.7456C25.7448 22.7053 25.6844 22.6449 25.624 22.6047H25.6039L13.8889 15.8615C13.446 15.62 12.9227 15.62 12.4799 15.8615L0.704496 22.6047H0.684367C0.623981 22.6449 0.563594 22.6852 0.503208 22.7456C0.46295 22.7657 0.422693 22.806 0.402564 22.8261C0.342177 22.8865 0.30192 22.9469 0.261662 23.0274C0.241533 23.0676 0.201276 23.0878 0.181147 23.128C0.12076 23.2287 0.0805026 23.3494 0.0402449 23.4702C0.0201161 23.5105 0.0402449 23.5507 0.0201161 23.591C0.0201161 23.6715 -1.27703e-05 23.752 -1.27703e-05 23.8325V35.6079C-1.27703e-05 36.1312 0.281791 36.5942 0.724625 36.8358L11.7754 42.8744V59.0177L0.704496 65.3583H0.684367C0.623981 65.3986 0.563594 65.4388 0.503208 65.4992C0.46295 65.5193 0.422693 65.5596 0.402564 65.5797C0.342177 65.6401 0.30192 65.7005 0.261662 65.781C0.241533 65.8213 0.201276 65.8414 0.181147 65.8816C0.12076 65.9823 0.0805026 66.1031 0.0402449 66.2238C0.0201161 66.2641 0.0402449 66.3044 0.0201161 66.3446C-1.27703e-05 66.4251 -1.27703e-05 66.5056 -0.0201416 66.5862V78.3615C-0.0201416 78.8849 0.261662 79.3478 0.724625 79.5894L12.5 86.0105C12.5604 86.0507 12.6409 86.0709 12.7013 86.091C12.7415 86.1111 12.7818 86.1312 12.8221 86.1312C13.0636 86.1916 13.3051 86.1916 13.5467 86.1312C13.5869 86.1111 13.6272 86.091 13.6675 86.091C13.748 86.0709 13.8084 86.0507 13.8688 86.0105L23.8728 80.5556L36.8358 89.1908V95.0282C36.8358 95.5515 37.1176 96.0145 37.5604 96.2561L49.3358 102.677C49.3961 102.717 49.4767 102.738 49.537 102.758C49.5773 102.778 49.6176 102.798 49.6578 102.798C49.8994 102.858 50.1409 102.858 50.3825 102.798C50.4227 102.778 50.463 102.758 50.5032 102.758C50.5837 102.738 50.6441 102.717 50.7045 102.677L62.4799 96.2561C62.9227 96.0145 63.2045 95.5314 63.2045 95.0282V89.1908L76.1675 80.5556L86.1715 86.0105C86.2319 86.0507 86.3124 86.0709 86.3728 86.091C86.4131 86.1111 86.4533 86.1312 86.4936 86.1312C86.7351 86.1916 86.9767 86.1916 87.2182 86.1312C87.2585 86.1111 87.2987 86.091 87.339 86.091C87.4195 86.0709 87.4799 86.0507 87.5403 86.0105L99.3156 79.5894C99.7585 79.3478 100.04 78.8647 100.04 78.3615V66.5862C100.04 66.5056 100.02 66.4251 100 66.3647C100 66.3245 100 66.2842 99.9799 66.2238C99.9396 66.1031 99.8994 66.0024 99.839 65.8816C99.8189 65.8414 99.7786 65.8213 99.7585 65.781C99.7182 65.7206 99.6578 65.6401 99.6176 65.5797C99.5773 65.5395 99.5371 65.5193 99.4968 65.4992C99.4364 65.4589 99.376 65.3986 99.3156 65.3583H99.2955L88.2247 59.0177V42.8744L99.2754 36.8559C99.7182 36.6143 100 36.1312 100 35.628V23.8527C100 23.752 99.9799 23.6715 99.9799 23.6111ZM58.5346 83.4139L50 88.0636L41.4654 83.4139L41.1031 83.2126L50 78.12L58.8969 83.2126L58.5346 83.4139ZM23.5507 34.7826L14.5934 39.6538V31.099L23.5507 26.2077V34.7826ZM13.1844 61.4533L22.0813 66.5459L21.719 66.7472L13.1844 71.3969L4.64975 66.7472L4.28743 66.5459L13.1844 61.4533ZM24.839 64.8752L14.5934 58.9976V42.8744L23.9332 37.7818L36.8156 46.1755V56.4614L24.839 64.8752ZM39.6337 19.1023V10.5274L48.591 15.4187V23.9734L39.6337 19.1023ZM60.3664 19.1023L51.409 23.9936V15.4187L60.3664 10.5274V19.1023ZM50 40.2778L58.8969 45.3704L58.5346 45.5717L50 50.2214L41.4654 45.5717L41.1031 45.3704L50 40.2778ZM39.6337 47.7858L48.591 52.6771V61.252L39.6337 56.3607V47.7858ZM51.409 52.657L60.3664 47.7657V56.3406L51.409 61.2319V52.657ZM63.1844 46.1755L76.0668 37.7818L85.4066 42.8744V59.0177L75.161 64.8953L63.1844 56.4614V46.1755ZM85.4066 31.099V39.6538L76.4493 34.7625V26.2077L85.4066 31.099ZM76.4493 77.5161V68.9412L85.4066 73.8325V82.3873L76.4493 77.5161ZM95.3503 66.7472L86.8156 71.3969L78.281 66.7472L77.9187 66.5459L86.8156 61.4533L95.7126 66.5459L95.3503 66.7472ZM86.8156 18.7198L95.7126 23.8124L95.3503 24.0137L86.8156 28.6634L78.281 24.0137L77.9187 23.8124L86.8156 18.7198ZM73.6916 35.9702L61.7351 43.7601L51.409 37.8422V27.194L60.8696 22.0411L73.6312 30.0322V35.6079C73.6312 35.7287 73.6514 35.8494 73.6916 35.9702ZM50 3.03945L58.8969 8.13205L50.4026 12.7617L50.0201 12.9831L49.6377 12.7617L41.1433 8.11192L50 3.03945ZM39.1506 22.0411L48.6111 27.194V37.8422L38.285 43.7601L26.3285 35.9702C26.3688 35.8494 26.3688 35.7287 26.3688 35.6079V30.0322L39.1506 22.0411ZM13.1844 18.7198L22.0813 23.8124L21.719 24.0137L13.1844 28.6634L4.64975 24.0137L4.28743 23.8124L13.1844 18.7198ZM2.81802 26.2077L11.7754 31.099V39.6538L2.81802 34.7826V26.2077ZM2.81802 68.9412L11.7754 73.8325V82.3873L2.81802 77.5161V68.9412ZM14.5934 73.8325L23.5507 68.9412V77.496L14.5934 82.3873V73.8325ZM26.2882 78.7842C26.3486 78.6433 26.3688 78.5024 26.3688 78.3414V67.2504L38.3253 58.8366L48.591 64.4525V75.6844L37.5201 82.025H37.5C37.4396 82.0652 37.3792 82.1055 37.3188 82.1659C37.2786 82.186 37.2383 82.2263 37.2182 82.2464C37.1578 82.3068 37.1176 82.3672 37.0773 82.4477C37.0572 82.4879 37.0169 82.5081 36.9968 82.5483C36.9364 82.649 36.8961 82.7697 36.8559 82.8905C36.8358 82.9308 36.8559 82.971 36.8358 83.0113C36.8156 83.0918 36.8156 83.1723 36.7955 83.2528V85.8092L26.2882 78.7842ZM39.6337 88.4259V85.628L48.591 90.5193V99.0741L39.6337 94.1828V88.4259ZM51.409 99.0741V90.5193L60.3664 85.628V94.2029L51.409 99.0741ZM63.1844 83.2528C63.1844 83.1723 63.1643 83.0918 63.1441 83.0314C63.1441 82.9911 63.1441 82.9509 63.124 82.8905C63.0837 82.7697 63.0435 82.6691 62.9831 82.5483C62.963 82.5081 62.9227 82.4879 62.9026 82.4477C62.8623 82.3873 62.8019 82.3068 62.7617 82.2464C62.7214 82.2061 62.6812 82.186 62.6409 82.1659C62.5805 82.1256 62.5201 82.0652 62.4598 82.025H62.4396L51.3688 75.6844V64.4324L61.6345 58.8164L73.591 67.2303V78.3213C73.591 78.4622 73.6111 78.6232 73.6715 78.7641L63.1441 85.7689L63.1844 83.2528ZM88.2247 82.4074V73.8527L97.182 68.9614V77.5362L88.2247 82.4074ZM88.2247 39.6538V31.099L97.182 26.2077V34.7625L88.2247 39.6538Z" fill="white"/>
</g>
<defs>
<clipPath id="clip0">
<rect width="100" height="102.858" fill="white"/>
</clipPath>
</defs>
</svg>
