<svg width="85" height="100" viewBox="0 0 85 100" fill="none" xmlns="http://www.w3.org/2000/svg">
<g clip-path="url(#clip0)">
<path d="M23.5455 56.2817H1.58094C0.716695 56.2817 0 56.9984 0 57.8627C0 58.748 0.716695 59.4436 1.58094 59.4436H23.5455C24.4098 59.4436 25.1265 58.748 25.1265 57.8627C25.1265 56.9774 24.4309 56.2817 23.5455 56.2817ZM82.6939 56.2817H30.312C29.4266 56.2817 28.731 56.9984 28.731 57.8627C28.731 58.7269 29.4266 59.4436 30.312 59.4436H30.4174V69.7935H21.5008C20.8474 67.8332 18.9713 66.4209 16.8002 66.4209C14.0599 66.4209 11.8465 68.6342 11.8465 71.3745C11.8465 74.1148 14.0809 76.3281 16.8002 76.3281C18.9713 76.3281 20.8474 74.9158 21.5008 72.9554H30.4174V80.1856C28.457 80.8391 27.0447 82.7151 27.0447 84.8863C27.0447 87.6266 29.2791 89.8399 31.9983 89.8399C34.7386 89.8399 36.9519 87.6055 36.9519 84.8863C36.9519 82.7151 35.5396 80.8391 33.5793 80.1856V59.4436H40.5565V90.3458C38.5961 90.9993 37.1838 92.8543 37.1838 95.0465C37.1838 97.7868 39.4182 100 42.1374 100C44.8567 100 47.0911 97.7657 47.0911 95.0465C47.0911 92.8543 45.6788 90.9993 43.7184 90.3458V59.4436H50.6956V80.2067C48.7352 80.8602 47.3229 82.7362 47.3229 84.9074C47.3229 87.6477 49.5573 89.861 52.2766 89.861C55.0169 89.861 57.2302 87.6266 57.2302 84.9074C57.2302 82.7362 55.8179 80.8602 53.8575 80.2067V72.9765H62.774C63.4275 74.9369 65.3035 76.3492 67.4747 76.3492C70.215 76.3492 72.4283 74.1148 72.4283 71.3956C72.4283 68.6553 70.1939 66.4419 67.4747 66.4419C65.3035 66.4419 63.4275 67.8543 62.774 69.8146H53.8575V59.4436H82.6939C83.5582 59.4436 84.2749 58.748 84.2749 57.8627C84.2749 56.9774 83.5582 56.2817 82.6939 56.2817ZM16.8002 73.1662C15.8094 73.1662 15.0084 72.3652 15.0084 71.3745C15.0084 70.3838 15.8094 69.5828 16.8002 69.5828C17.7909 69.5828 18.5919 70.3838 18.5919 71.3745C18.5919 72.3652 17.7909 73.1662 16.8002 73.1662ZM33.7901 84.8863C33.7901 85.877 32.989 86.678 31.9983 86.678C31.0076 86.678 30.2066 85.877 30.2066 84.8863C30.2066 83.8956 31.0076 83.0946 31.9983 83.0946C32.989 83.0946 33.7901 83.8956 33.7901 84.8863ZM43.9292 95.0254C43.9292 96.0161 43.1282 96.8172 42.1374 96.8172C41.1467 96.8172 40.3457 96.0161 40.3457 95.0254C40.3457 94.0347 41.1467 93.2337 42.1374 93.2337C43.1282 93.2337 43.9292 94.0347 43.9292 95.0254ZM54.0683 84.8863C54.0683 85.877 53.2673 86.678 52.2766 86.678C51.2858 86.678 50.4848 85.877 50.4848 84.8863C50.4848 83.8956 51.2858 83.0946 52.2766 83.0946C53.2673 83.0946 54.0683 83.8956 54.0683 84.8863ZM67.4747 69.5828C68.4654 69.5828 69.2664 70.3838 69.2664 71.3745C69.2664 72.3652 68.4654 73.1662 67.4747 73.1662C66.484 73.1662 65.683 72.3652 65.683 71.3745C65.683 70.3838 66.484 69.5828 67.4747 69.5828Z" fill="white"/>
<path d="M70.2572 25.8643C70.2572 25.8432 70.2572 25.8432 70.2572 25.8643L46.0161 1.6231C44.9832 0.56914 43.5919 0 42.1375 0C40.683 0 39.2918 0.56914 38.2589 1.60202L14.0177 25.8432L13.9967 25.8643C11.8677 27.9933 11.8677 31.4713 13.9967 33.6003C14.9663 34.57 16.2521 35.1391 17.6223 35.2024C17.6855 35.2024 17.7277 35.2024 17.7909 35.2024H18.7606V53.0354C18.7606 56.5767 21.6274 59.4435 25.1687 59.4435H34.6543C35.624 59.4435 36.4039 58.6636 36.4039 57.6939V43.6973C36.4039 42.0953 37.7108 40.7673 39.3339 40.7673H44.9199C46.522 40.7673 47.85 42.0742 47.85 43.6973V57.6939C47.85 58.6636 48.6299 59.4435 49.5995 59.4435H59.0852C62.6265 59.4435 65.4933 56.5767 65.4933 53.0354V35.2024H66.3997C67.8542 35.2024 69.2454 34.6332 70.2783 33.6003C72.3862 31.4503 72.3862 27.9933 70.2572 25.8643ZM67.7909 31.1341C67.4115 31.5135 66.9056 31.7243 66.3786 31.7243H63.7437C62.7741 31.7243 61.9941 32.5042 61.9941 33.4739V53.0565C61.9941 54.6585 60.6872 55.9865 59.0641 55.9865H51.328V43.7395C51.328 40.1981 48.4613 37.3314 44.9199 37.3314H39.3339C35.7926 37.3314 32.9258 40.1981 32.9258 43.7395V55.9865H25.1897C23.5877 55.9865 22.2597 54.6796 22.2597 53.0565V33.4739C22.2597 32.5042 21.4798 31.7243 20.5101 31.7243H17.9385C17.9174 31.7243 17.8752 31.7243 17.8542 31.7243C17.3272 31.7243 16.8424 31.5135 16.484 31.1341C15.7041 30.3541 15.7041 29.0894 16.484 28.3305L40.7252 4.08938C41.1046 3.70995 41.5894 3.49916 42.1375 3.49916C42.6645 3.49916 43.1704 3.70995 43.5498 4.08938L67.7909 28.3305C67.7909 28.3305 67.7909 28.3305 67.812 28.3516C68.5709 29.0894 68.5709 30.3541 67.7909 31.1341Z" fill="white"/>
</g>
<defs>
<clipPath id="clip0">
<rect width="84.2749" height="100" fill="white"/>
</clipPath>
</defs>
</svg>
