<svg width="100" height="100" viewBox="0 0 100 100" fill="none" xmlns="http://www.w3.org/2000/svg">
<g clip-path="url(#clip0)">
<path d="M80 68.3333C91.0208 68.3333 100 59.3542 100 48.3333C100 37.3125 91.0208 28.3333 80 28.3333C77.625 28.3333 75.3125 28.75 73.1042 29.5625C72.1458 25.0625 68.125 21.6667 63.3333 21.6667C63.3333 21.6667 63.3333 21.6667 63.3125 21.6667C62.875 9.64583 52.9583 0 40.8333 0C28.4167 0 18.3333 10.0833 18.3333 22.5C18.3333 23.4167 18.3958 24.3333 18.5 25.25C7.97917 26.7917 0 35.875 0 46.6667C0 58.6042 9.72917 68.3333 21.6667 68.3333H35V76.6667H26.6667V80H36.6667C37.5833 80 38.3333 79.25 38.3333 78.3333V68.3333H41.6667V71.6667H45V68.3333H48.3333V90H45V93.3333H50C50.9167 93.3333 51.6667 92.5833 51.6667 91.6667V68.3333H55V75H58.3333V68.3333H61.6667V85C61.6667 85.9167 62.4167 86.6667 63.3333 86.6667H71.6667V83.3333H65V68.3333H68.3333V78.3333C68.3333 79.25 69.0833 80 70 80H80V76.6667H71.6667V68.3333H80ZM3.33333 46.6667C3.33333 37.0208 10.8958 28.9792 20.5417 28.3958C21.0208 28.375 21.4792 28.125 21.7708 27.75C22.0625 27.375 22.1875 26.875 22.0833 26.3958C21.8125 25.125 21.6875 23.8125 21.6875 22.5C21.6875 11.9375 30.2917 3.33333 40.8542 3.33333C51.4167 3.33333 60.0208 11.9375 60.0208 22.5C60.0208 22.6875 60 22.875 60 23.0417L59.9792 23.4167C59.9583 23.9375 60.1667 24.4375 60.5625 24.7708C60.9583 25.1042 61.4792 25.25 61.9792 25.125C66.2083 24.25 70.0208 27.5208 70.0208 31.6042C70.0208 31.6667 69.9792 31.875 69.9792 31.9375C69.9583 32.5208 70.25 33.1042 70.75 33.4167C71.25 33.7292 71.875 33.7708 72.4167 33.5C74.8125 32.2708 77.3542 31.6458 80.0208 31.6458C89.2083 31.6458 96.6875 39.125 96.6875 48.3125C96.6875 57.5 89.2083 64.9792 80.0208 64.9792H21.6667C11.5625 65 3.33333 56.7708 3.33333 46.6667Z" fill="white"/>
<path d="M45.5625 9.14575C44.0417 8.60409 42.4584 8.33325 40.8334 8.33325V11.6666C42.0625 11.6666 43.2917 11.8749 44.4375 12.2916L45.5625 9.14575Z" fill="white"/>
<path d="M37.2291 12.2918L36.1041 9.146C30.4583 11.146 26.6666 16.521 26.6666 22.5002H30C30 17.9168 32.8958 13.8127 37.2291 12.2918Z" fill="white"/>
<path d="M57.1458 39.6875L54.1667 38.4583C53.9583 37.875 53.7292 37.2917 53.4583 36.75L54.6875 33.7917C54.9167 33.2292 54.8333 32.6042 54.4583 32.125C53.5 30.8958 52.3958 29.7917 51.1667 28.8333C50.6875 28.4583 50.0625 28.375 49.5 28.6042L46.5417 29.8333C46 29.5625 45.4167 29.3333 44.8333 29.125L43.6042 26.1458C43.375 25.5833 42.875 25.2083 42.2708 25.125C40.5417 24.8958 39.375 24.8958 37.625 25.125C37.0208 25.2083 36.5208 25.5833 36.2917 26.1458L35.0625 29.125C34.4792 29.3333 33.8958 29.5625 33.3542 29.8333L30.3958 28.6042C29.8542 28.375 29.2083 28.4583 28.7292 28.8333C27.5 29.7917 26.3958 30.8958 25.4375 32.125C25.0625 32.6042 24.9792 33.2292 25.2083 33.7917L26.4375 36.75C26.1667 37.2917 25.9375 37.875 25.7292 38.4583L22.75 39.6875C22.1875 39.9167 21.8125 40.4167 21.7292 41.0208C21.625 41.8958 21.5625 42.625 21.5625 43.3333C21.5625 44.0417 21.6042 44.7917 21.7292 45.6458C21.8125 46.25 22.1875 46.75 22.75 46.9792L25.7292 48.2083C25.9375 48.7917 26.1667 49.375 26.4375 49.9167L25.2083 52.875C24.9792 53.4375 25.0625 54.0625 25.4375 54.5417C26.3958 55.7708 27.5 56.875 28.7292 57.8333C29.2083 58.2083 29.8333 58.2917 30.3958 58.0625L33.3542 56.8333C33.8958 57.1042 34.4792 57.3333 35.0625 57.5417L36.2917 60.5208C36.5208 61.0833 37.0208 61.4583 37.625 61.5417C38.5 61.6458 39.2292 61.7083 39.9375 61.7083C40.6458 61.7083 41.3958 61.6667 42.25 61.5417C42.8542 61.4583 43.3542 61.0833 43.5833 60.5208L44.8125 57.5417C45.3958 57.3333 45.9792 57.1042 46.5208 56.8333L49.4792 58.0625C50.0417 58.2917 50.6667 58.2083 51.1458 57.8333C52.375 56.875 53.4792 55.7708 54.4375 54.5417C54.8125 54.0625 54.8958 53.4375 54.6667 52.875L53.4375 49.9167C53.7083 49.375 53.9375 48.7917 54.1458 48.2083L57.125 46.9792C57.6875 46.75 58.0625 46.25 58.1458 45.6458C58.25 44.7708 58.3125 44.0417 58.3125 43.3333C58.3125 42.625 58.2708 41.875 58.1458 41.0208C58.1042 40.4167 57.7083 39.9167 57.1458 39.6875ZM54.9583 44.2917L52.1875 45.4375C51.7083 45.625 51.3542 46.0417 51.2083 46.5208C50.9583 47.4167 50.6042 48.25 50.1667 49.0417C49.9167 49.4792 49.8958 50.0208 50.0833 50.5L51.2292 53.25C50.8125 53.7292 50.3542 54.1875 49.875 54.6042L47.125 53.4583C46.6458 53.25 46.125 53.2917 45.6667 53.5417C44.8958 53.9792 44.0417 54.3333 43.1458 54.5833C42.6458 54.7292 42.25 55.0833 42.0625 55.5625L40.9167 58.3333C40.25 58.375 39.6875 58.375 39.0208 58.3333L37.875 55.5625C37.6875 55.0833 37.2708 54.7292 36.7917 54.5833C35.8958 54.3333 35.0625 53.9792 34.2708 53.5417C33.8333 53.2917 33.2917 53.2708 32.8125 53.4583L30.0625 54.6042C29.5833 54.1875 29.125 53.7292 28.7083 53.25L29.8542 50.5C30.0625 50.0208 30.0208 49.5 29.7708 49.0417C29.3333 48.2708 28.9792 47.4167 28.7292 46.5208C28.5833 46.0208 28.2292 45.625 27.75 45.4375L24.9792 44.2917C24.9583 43.9583 24.9375 43.6458 24.9375 43.3333C24.9375 43.0208 24.9583 42.7083 24.9792 42.375L27.75 41.2292C28.2292 41.0417 28.5833 40.625 28.7292 40.1458C28.9792 39.25 29.3333 38.4167 29.7708 37.625C30.0208 37.1875 30.0417 36.6458 29.8542 36.1667L28.7083 33.4167C29.125 32.9375 29.5833 32.4792 30.0625 32.0625L32.8125 33.2083C33.2917 33.4167 33.8125 33.375 34.2708 33.125C35.0417 32.6875 35.8958 32.3333 36.7917 32.0833C37.2917 31.9375 37.6875 31.5833 37.875 31.1042L39.0208 28.3333C39.6875 28.2917 40.25 28.2917 40.9167 28.3333L42.0625 31.1042C42.25 31.5833 42.6667 31.9375 43.1458 32.0833C44.0417 32.3333 44.875 32.6875 45.6667 33.125C46.1042 33.375 46.6458 33.3958 47.125 33.2083L49.875 32.0625C50.3542 32.4792 50.8125 32.9375 51.2292 33.4167L50.0833 36.1667C49.875 36.6458 49.9167 37.1667 50.1667 37.625C50.6042 38.3958 50.9583 39.25 51.2083 40.1458C51.3542 40.6458 51.7083 41.0417 52.1875 41.2292L54.9583 42.375C54.9792 42.7083 55 43.0208 55 43.3333C55 43.6458 54.9792 43.9583 54.9583 44.2917Z" fill="white"/>
<path d="M77.875 57.1668L79.5 58.1043L81.1666 55.2084L79.5416 54.2709C79.6458 53.9584 79.7708 53.6459 79.8333 53.3126H81.6666V49.9792H79.8333C79.7708 49.6459 79.6458 49.3334 79.5416 49.0209L81.1666 48.0834L79.5 45.1876L77.875 46.1251C77.6458 45.8751 77.4166 45.6459 77.1666 45.4167L78.1041 43.7917L75.2083 42.1251L74.2708 43.7501C73.9583 43.6459 73.6458 43.5209 73.3125 43.4584V41.6667H69.9791V43.5001C69.6458 43.5626 69.3333 43.6876 69.0208 43.7917L68.0833 42.1667L65.1875 43.8334L66.125 45.4584C65.875 45.6876 65.6458 45.9168 65.4166 46.1668L63.7916 45.2293L62.125 48.1251L63.75 49.0626C63.6458 49.3751 63.5208 49.6876 63.4583 50.0209H61.6666V53.3543H63.5C63.5625 53.6876 63.6875 54.0001 63.7916 54.3126L62.1666 55.2501L63.8333 58.1459L65.4583 57.2084C65.6875 57.4584 65.9166 57.6876 66.1666 57.9168L65.2291 59.5418L68.125 61.2084L69.0625 59.5834C69.375 59.6876 69.6875 59.8126 70.0208 59.8751V61.7084H73.3541V59.8751C73.6875 59.8126 74 59.6876 74.3125 59.5834L75.25 61.2084L78.1458 59.5418L77.2083 57.9168C77.4166 57.6459 77.6458 57.4168 77.875 57.1668ZM71.6666 56.6668C68.9166 56.6668 66.6666 54.4168 66.6666 51.6668C66.6666 48.9168 68.9166 46.6667 71.6666 46.6667C74.4166 46.6667 76.6666 48.9168 76.6666 51.6668C76.6666 54.4168 74.4166 56.6668 71.6666 56.6668Z" fill="white"/>
<path d="M40 35C35.3958 35 31.6666 38.7292 31.6666 43.3333C31.6666 47.9375 35.3958 51.6667 40 51.6667C44.6041 51.6667 48.3333 47.9375 48.3333 43.3333C48.3333 38.7292 44.6041 35 40 35ZM40 48.3333C37.25 48.3333 35 46.0833 35 43.3333C35 40.5833 37.25 38.3333 40 38.3333C42.75 38.3333 45 40.5833 45 43.3333C45 46.0833 42.75 48.3333 40 48.3333Z" fill="white"/>
<path d="M18.3334 76.6667H23.3334V80.0001H18.3334V76.6667Z" fill="white"/>
<path d="M45 85V75H41.6667V83.3333H35V86.6667H43.3333C44.25 86.6667 45 85.9167 45 85Z" fill="white"/>
<path d="M26.6666 83.3333H31.6666V86.6666H26.6666V83.3333Z" fill="white"/>
<path d="M18.3334 83.3333H23.3334V86.6666H18.3334V83.3333Z" fill="white"/>
<path d="M28.3334 90H41.6667V93.3333H28.3334V90Z" fill="white"/>
<path d="M55 96.6667H41.6666V100H56.6666C57.5833 100 58.3333 99.25 58.3333 98.3333V90H55V96.6667Z" fill="white"/>
<path d="M55 78.3333H58.3333V86.6666H55V78.3333Z" fill="white"/>
<path d="M9.6875 79.9999H15V76.6666H9.6875C9 74.7291 7.16667 73.3333 5 73.3333C2.25 73.3333 0 75.5832 0 78.3332C0 81.0832 2.25 83.3332 5 83.3332C7.16667 83.3332 9 81.9374 9.6875 79.9999ZM3.33333 78.3332C3.33333 77.4166 4.08333 76.6666 5 76.6666C5.91667 76.6666 6.66667 77.4166 6.66667 78.3332C6.66667 79.2499 5.91667 79.9999 5 79.9999C4.08333 79.9999 3.33333 79.2499 3.33333 78.3332Z" fill="white"/>
<path d="M75 83.3333H80V86.6666H75V83.3333Z" fill="white"/>
<path d="M83.3334 83.3333H88.3334V86.6666H83.3334V83.3333Z" fill="white"/>
<path d="M95 73.3333C92.8334 73.3333 91 74.7291 90.3125 76.6666H83.3334V79.9999H90.3125C91 81.9374 92.8334 83.3332 95 83.3332C97.75 83.3332 100 81.0832 100 78.3332C100 75.5832 97.75 73.3333 95 73.3333ZM95 79.9999C94.0834 79.9999 93.3334 79.2499 93.3334 78.3332C93.3334 77.4166 94.0834 76.6666 95 76.6666C95.9167 76.6666 96.6667 77.4166 96.6667 78.3332C96.6667 79.2499 95.9167 79.9999 95 79.9999Z" fill="white"/>
<path d="M10 86.6667C7.25 86.6667 5 88.9167 5 91.6667C5 94.4167 7.25 96.6667 10 96.6667C12.1667 96.6667 14 95.2709 14.6875 93.3334H25V90.0001H14.6875C14 88.0626 12.1667 86.6667 10 86.6667ZM10 93.3334C9.08333 93.3334 8.33333 92.5834 8.33333 91.6667C8.33333 90.7501 9.08333 90.0001 10 90.0001C10.9167 90.0001 11.6667 90.7501 11.6667 91.6667C11.6667 92.5834 10.9167 93.3334 10 93.3334Z" fill="white"/>
</g>
<defs>
<clipPath id="clip0">
<rect width="100" height="100" fill="white"/>
</clipPath>
</defs>
</svg>
