<svg width="100" height="100" viewBox="0 0 100 100" fill="none" xmlns="http://www.w3.org/2000/svg">
<path d="M72.9297 11.1133C72.5586 10.7422 72.0703 10.5469 71.543 10.5469C71.0352 10.5469 70.5273 10.7617 70.1563 11.1133C69.7852 11.4844 69.5898 11.9727 69.5898 12.5C69.5898 13.0078 69.8047 13.5156 70.1563 13.8867C70.5273 14.2578 71.0156 14.4531 71.543 14.4531C72.0508 14.4531 72.5586 14.2383 72.9297 13.8867C73.3008 13.5156 73.4961 13.0273 73.4961 12.5C73.4961 11.9727 73.3008 11.4844 72.9297 11.1133Z" fill="white"/>
<path d="M68.0469 19.9219H55.5469C54.4727 19.9219 53.5938 20.8008 53.5938 21.875V34.375C53.5938 35.4492 54.4727 36.3281 55.5469 36.3281H68.0469C69.1211 36.3281 70 35.4492 70 34.375V21.875C70 20.8008 69.1211 19.9219 68.0469 19.9219ZM66.0938 32.4219H57.5V23.8281H66.0938V32.4219Z" fill="white"/>
<path d="M68.0469 41.7969H55.5469C54.4727 41.7969 53.5938 42.6758 53.5938 43.75V56.25C53.5938 57.3242 54.4727 58.2031 55.5469 58.2031H68.0469C69.1211 58.2031 70 57.3242 70 56.25V43.75C70 42.6758 69.1211 41.7969 68.0469 41.7969ZM66.0938 54.2969H57.5V45.7031H66.0938V54.2969Z" fill="white"/>
<path d="M61.7969 63.6719H55.5469C54.4727 63.6719 53.5938 64.5508 53.5938 65.625V78.125C53.5938 79.1992 54.4727 80.0781 55.5469 80.0781C56.6211 80.0781 57.5 79.1992 57.5 78.125V67.5781H61.7969C62.8711 67.5781 63.75 66.6992 63.75 65.625C63.75 64.5508 62.8711 63.6719 61.7969 63.6719Z" fill="white"/>
<path d="M46.1523 19.9219C45.0781 19.9219 44.1992 20.8008 44.1992 21.875V32.4219H33.6523C32.5781 32.4219 31.6992 33.3008 31.6992 34.375C31.6992 35.4492 32.5781 36.3281 33.6523 36.3281H46.1523C47.2266 36.3281 48.1055 35.4492 48.1055 34.375V21.875C48.1055 20.8008 47.2461 19.9219 46.1523 19.9219Z" fill="white"/>
<path d="M46.1523 41.7969H33.6523C32.5781 41.7969 31.6992 42.6758 31.6992 43.75V56.25C31.6992 57.3242 32.5781 58.2031 33.6523 58.2031H46.1523C47.2266 58.2031 48.1055 57.3242 48.1055 56.25V43.75C48.1055 42.6758 47.2461 41.7969 46.1523 41.7969ZM44.1992 54.2969H35.6055V45.7031H44.1992V54.2969Z" fill="white"/>
<path d="M46.1523 63.6719H33.6523C32.5781 63.6719 31.6992 64.5508 31.6992 65.625V78.125C31.6992 79.1992 32.5781 80.0781 33.6523 80.0781H46.1523C47.2266 80.0781 48.1055 79.1992 48.1055 78.125V65.625C48.1055 64.5508 47.2461 63.6719 46.1523 63.6719ZM44.1992 76.1719H35.6055V67.5781H44.1992V76.1719Z" fill="white"/>
<path d="M76.5625 0H23.4375C20.2148 0 17.5781 2.63672 17.5781 5.85938V6.64062H5.85938C2.63672 6.64062 0 9.25781 0 12.5V30.4688C0 33.6914 2.63672 36.3281 5.85938 36.3281H23.8281C27.0508 36.3281 29.6875 33.6914 29.6875 30.4688V14.4531H62.5C63.5742 14.4531 64.4531 13.5742 64.4531 12.5C64.4531 11.4258 63.5742 10.5469 62.5 10.5469H29.3555C28.5547 8.26172 26.3672 6.64062 23.8281 6.64062H21.4844V5.85938C21.4844 4.78516 22.3633 3.90625 23.4375 3.90625H76.5625C77.6367 3.90625 78.5156 4.78516 78.5156 5.85938V50C78.5156 51.0742 79.3945 51.9531 80.4688 51.9531C81.543 51.9531 82.4219 51.0742 82.4219 50V5.85938C82.4219 2.63672 79.7852 0 76.5625 0ZM23.8281 10.5469C24.9023 10.5469 25.7812 11.4258 25.7812 12.5V30.4688C25.7812 31.543 24.9023 32.4219 23.8281 32.4219H5.85938C4.78516 32.4219 3.90625 31.543 3.90625 30.4688V12.5C3.90625 11.4258 4.78516 10.5469 5.85938 10.5469H23.8281Z" fill="white"/>
<path d="M94.1406 56.6406H73.0469C69.8242 56.6406 67.1875 59.2773 67.1875 62.5V83.5938C67.1875 86.8164 69.8242 89.4531 73.0469 89.4531H78.5156V94.1406C78.5156 95.2148 77.6367 96.0938 76.5625 96.0938H23.4375C22.3633 96.0938 21.4844 95.2148 21.4844 94.1406V89.4531H62.7539C63.8281 89.4531 64.707 88.5742 64.707 87.5C64.707 86.4258 63.8281 85.5469 62.7539 85.5469H21.4844V43.75C21.4844 42.6758 20.6055 41.7969 19.5312 41.7969C18.457 41.7969 17.5781 42.6758 17.5781 43.75V94.1406C17.5781 97.3633 20.2148 100 23.4375 100H76.5625C79.7852 100 82.4219 97.3633 82.4219 94.1406V89.4531H94.1406C97.3633 89.4531 100 86.8164 100 83.5938V62.5C100 59.2773 97.3633 56.6406 94.1406 56.6406ZM96.0938 83.5938C96.0938 84.668 95.2148 85.5469 94.1406 85.5469H73.0469C71.9727 85.5469 71.0938 84.668 71.0938 83.5938V62.5C71.0938 61.4258 71.9727 60.5469 73.0469 60.5469H94.1406C95.2148 60.5469 96.0938 61.4258 96.0938 62.5V83.5938Z" fill="white"/>
<path d="M89.4727 19.9219C88.3984 19.9219 87.5195 20.8008 87.5195 21.875V37.4219C87.5195 38.4961 88.3984 39.375 89.4727 39.375C90.5469 39.375 91.4258 38.4961 91.4258 37.4219V21.875C91.4258 20.8008 90.5469 19.9219 89.4727 19.9219Z" fill="white"/>
<path d="M90.8398 43.4766C90.4688 43.1055 89.9805 42.9102 89.4531 42.9102C88.9258 42.9102 88.4375 43.125 88.0664 43.4766C87.6953 43.8477 87.5 44.3359 87.5 44.8633C87.5 45.3906 87.7148 45.8789 88.0664 46.25C88.4375 46.6211 88.9258 46.8164 89.4531 46.8164C89.9805 46.8164 90.4688 46.6016 90.8398 46.25C91.2109 45.8789 91.4062 45.3906 91.4062 44.8633C91.4062 44.3359 91.2109 43.8477 90.8398 43.4766Z" fill="white"/>
<path d="M10.5469 45.1172C9.47266 45.1172 8.59375 45.9961 8.59375 47.0703V60.5273C8.59375 61.6016 9.47266 62.4805 10.5469 62.4805C11.6211 62.4805 12.5 61.6016 12.5 60.5273V47.0703C12.5 45.9961 11.6211 45.1172 10.5469 45.1172Z" fill="white"/>
<path d="M18.1445 22.0312C18.1445 20.7617 18.9258 19.6875 20.0195 19.2383C19.1797 17.8515 17.5586 17.207 14.8633 18.3398C14.5312 18.4765 14.1602 18.4765 13.8086 18.3398C7.26562 15.6054 7.05078 23.2422 8.96484 26.9726C10.4883 29.9414 12.8711 29.1015 13.8672 28.5742C14.1602 28.4179 14.5117 28.4179 14.8047 28.5742C15.8008 29.1015 18.2031 29.9414 19.707 26.9726C20.0195 26.3867 20.2539 25.6836 20.4297 24.9414C19.1211 24.6289 18.1445 23.4375 18.1445 22.0312Z" fill="white"/>
<path d="M14.922 13.4179C14.1993 14.1405 13.9063 15.1562 14.0626 16.0937C15.0001 16.2499 16.0157 15.9569 16.7384 15.2343C17.461 14.5116 17.754 13.496 17.5977 12.5585C16.6602 12.4022 15.6446 12.6757 14.922 13.4179Z" fill="white"/>
<path d="M84.0625 68.7305C79.9609 68.7305 76.6211 72.0508 76.6211 76.1719V79.2969H91.5039V76.1719C91.5039 72.0703 88.1641 68.7305 84.0625 68.7305ZM81.543 75.8789C81.543 76.3086 81.1914 76.6602 80.7617 76.6602C80.332 76.6602 79.9805 76.3086 79.9805 75.8789V74.4141C79.9805 73.9844 80.332 73.6328 80.7617 73.6328C81.1914 73.6328 81.543 73.9844 81.543 74.4141V75.8789ZM88.125 75.8789C88.125 76.3086 87.7734 76.6602 87.3438 76.6602C86.9141 76.6602 86.5625 76.3086 86.5625 75.8789V74.4141C86.5625 73.9844 86.9141 73.6328 87.3438 73.6328C87.7734 73.6328 88.125 73.9844 88.125 74.4141V75.8789Z" fill="white"/>
<path d="M79.1992 71.1523C79.0039 71.1523 78.8086 71.0742 78.6524 70.918L75.8594 68.125C75.5469 67.8125 75.5469 67.3242 75.8594 67.0117C76.1719 66.6992 76.6602 66.6992 76.9727 67.0117L79.7656 69.8047C80.0781 70.1172 80.0781 70.6055 79.7656 70.918C79.6094 71.0742 79.3945 71.1523 79.1992 71.1523Z" fill="white"/>
<path d="M88.9063 71.1523C88.7109 71.1523 88.5156 71.0742 88.3594 70.918C88.0469 70.6055 88.0469 70.1172 88.3594 69.8047L91.1524 67.0117C91.4649 66.6992 91.9531 66.6992 92.2656 67.0117C92.5781 67.3242 92.5781 67.8125 92.2656 68.125L89.4727 70.918C89.3164 71.0742 89.1211 71.1523 88.9063 71.1523Z" fill="white"/>
</svg>
