<svg width="87" height="100" viewBox="0 0 87 100" fill="none" xmlns="http://www.w3.org/2000/svg">
<g clip-path="url(#clip0)">
<path d="M84.5703 42.7344C85.6445 42.7344 86.5234 41.8555 86.5234 40.7812C86.5234 39.707 85.6445 38.8281 84.5703 38.8281H77.168V33.5156H84.5703C85.6445 33.5156 86.5234 32.6367 86.5234 31.5625C86.5234 30.4883 85.6445 29.6094 84.5703 29.6094H77.168V26.4062C77.168 25.8789 76.9531 25.3906 76.6016 25.0195L70.957 19.375C70.5859 19.0039 70.0977 18.8086 69.5703 18.8086H66.3672V11.4062C66.3672 10.332 65.4883 9.45312 64.4141 9.45312C63.3398 9.45312 62.4609 10.332 62.4609 11.4062V18.7891H57.1484V11.4062C57.1484 10.332 56.2695 9.45312 55.1953 9.45312C54.1211 9.45312 53.2422 10.332 53.2422 11.4062V18.7891H47.9297V11.7969C47.9297 5.29297 42.6367 0 36.1328 0C30.8008 0 26.1719 3.59375 24.7656 8.59375C20.7031 9.00391 16.9531 10.8008 14.043 13.7305C10.7617 17.0508 8.96484 21.4453 8.96484 26.1133C8.96484 28.4375 9.41406 30.7227 10.293 32.8516C7.55859 34.3164 5.19531 36.4062 3.41797 38.9844C1.17188 42.2461 0 46.0547 0 50C0 57.2656 3.98438 63.7891 10.293 67.1484C9.41406 69.2773 8.96484 71.5625 8.96484 73.8672C8.96484 78.5352 10.7617 82.9297 14.043 86.25C16.9531 89.1797 20.7031 90.9766 24.7656 91.3867C26.1719 96.4062 30.8008 100 36.1328 100C42.6367 100 47.9297 94.707 47.9297 88.2031V81.1914H53.2422V88.5938C53.2422 89.668 54.1211 90.5469 55.1953 90.5469C56.2695 90.5469 57.1484 89.668 57.1484 88.5938V81.1914H62.4609V88.5938C62.4609 89.668 63.3398 90.5469 64.4141 90.5469C65.4883 90.5469 66.3672 89.668 66.3672 88.5938V81.1914H69.5703C70.0977 81.1914 70.5859 80.9766 70.957 80.625L76.6016 74.9805C76.9727 74.6094 77.168 74.1211 77.168 73.5938V70.3906H84.5703C85.6445 70.3906 86.5234 69.5117 86.5234 68.4375C86.5234 67.3633 85.6445 66.4844 84.5703 66.4844H77.168V61.1719H84.5703C85.6445 61.1719 86.5234 60.293 86.5234 59.2188C86.5234 58.1445 85.6445 57.2656 84.5703 57.2656H77.168V51.9531H84.5703C85.6445 51.9531 86.5234 51.0742 86.5234 50C86.5234 48.9258 85.6445 48.0469 84.5703 48.0469H77.168V42.7344H84.5703ZM36.1328 96.0938C32.8906 96.0938 30.0391 94.1016 28.8477 91.2305C30.2734 90.9766 31.6602 90.5469 32.9883 89.9219C34.9219 89.0234 36.6602 87.8125 38.1445 86.2891C38.9062 85.5273 38.8867 84.2773 38.125 83.5352C37.3633 82.7734 36.1133 82.793 35.3711 83.5547C34.2188 84.7266 32.8711 85.6641 31.3672 86.3672C29.7852 87.0898 28.0859 87.5 26.3477 87.5781C18.9062 87.4609 12.8711 81.3086 12.8711 73.8672C12.8711 71.5234 13.4766 69.1992 14.6094 67.168C14.8828 66.6797 14.9414 66.0938 14.7461 65.5664C14.5508 65.0391 14.1602 64.6094 13.6328 64.3945C7.73438 62.0117 3.90625 56.3672 3.90625 50C3.90625 43.6328 7.73438 37.9688 13.6328 35.6055C14.7852 34.9805 15.1172 34.0625 14.6094 32.832C13.457 30.8008 12.8516 28.4766 12.8516 26.1133C12.8516 18.6719 18.8867 12.5195 26.3281 12.4023C28.0469 12.4805 29.7461 12.8711 31.3477 13.6133C32.8516 14.2969 34.1992 15.2539 35.3516 16.4258C35.7422 16.8164 36.25 17.0117 36.7578 17.0117C37.2461 17.0117 37.7344 16.8359 38.125 16.4648C38.9062 15.7031 38.9062 14.4727 38.1641 13.7109C36.6797 12.1875 34.9414 10.9766 32.9883 10.0781C31.6406 9.47266 30.2539 9.04297 28.8477 8.78906C30.0391 5.89844 32.8906 3.90625 36.1328 3.90625C40.4883 3.90625 44.0234 7.44141 44.0234 11.7969V35.7422H37.9492L32.7734 30.5664C33.3203 29.5508 33.6133 28.418 33.6133 27.2461C33.6133 25.3906 32.8906 23.6523 31.582 22.3438C28.8867 19.6484 24.4922 19.6484 21.7773 22.3438C20.4688 23.6523 19.7461 25.3906 19.7461 27.2461C19.7461 29.1016 20.4688 30.8398 21.7773 32.1484C23.125 33.4961 24.9023 34.1797 26.6797 34.1797C27.832 34.1797 28.9648 33.9062 30 33.3398L35.7617 39.1016C36.1719 39.4727 36.6406 39.668 37.1484 39.668H44.043V48.0664H31.7969C30.957 45.1953 28.3008 43.0859 25.1562 43.0859C21.3281 43.0859 18.2227 46.1914 18.2227 50.0195C18.2227 53.8477 21.3281 56.9531 25.1562 56.9531C28.3008 56.9531 30.957 54.8438 31.7969 51.9727H44.043V60.3711H37.1484C37.0898 60.3711 37.0508 60.3711 37.0117 60.3711C36.5625 60.4102 36.1133 60.5859 35.7617 60.9375L30 66.6992C27.3633 65.2734 24.0039 65.6641 21.7773 67.8711C20.4688 69.1797 19.7461 70.918 19.7461 72.7734C19.7461 74.6289 20.4688 76.3672 21.7773 77.6562C23.125 79.0039 24.9023 79.6875 26.6797 79.6875C28.457 79.6875 30.2344 79.0039 31.582 77.6562C32.8906 76.3477 33.6133 74.6094 33.6133 72.7734C33.6133 71.6016 33.3203 70.4492 32.7734 69.4531L37.9492 64.2578H44.0234V88.2031C44.0234 92.5586 40.4883 96.0938 36.1328 96.0938ZM29.707 27.2461C29.707 28.0469 29.3945 28.8086 28.8281 29.375C27.6563 30.5469 25.7227 30.5469 24.5508 29.375C23.9844 28.8086 23.6719 28.0469 23.6719 27.2461C23.6719 26.4453 23.9844 25.6836 24.5508 25.1172C25.7227 23.9453 27.6563 23.9453 28.8281 25.1172C29.3945 25.6836 29.707 26.4453 29.707 27.2461ZM28.1641 50C28.1641 51.6602 26.8164 53.0273 25.1367 53.0273C23.4766 53.0273 22.1094 51.6797 22.1094 50C22.1094 48.3398 23.457 46.9727 25.1367 46.9727C26.7969 46.9727 28.1641 48.3398 28.1641 50ZM29.707 72.7539C29.707 73.5547 29.3945 74.3164 28.8281 74.8828C27.6563 76.0547 25.7227 76.0547 24.5508 74.8828C23.9844 74.3164 23.6719 73.5547 23.6719 72.7539C23.6719 71.9531 23.9844 71.1914 24.5508 70.6055C25.7227 69.4336 27.6563 69.4336 28.8281 70.6055C29.3945 71.1914 29.707 71.9531 29.707 72.7539ZM73.2617 72.793L68.75 77.3047H47.9297V71.5234H65.5273C66.6016 71.5234 67.4805 70.6445 67.4805 69.5703V58.7891C67.4805 57.7148 66.6016 56.8359 65.5273 56.8359C64.4531 56.8359 63.5742 57.7148 63.5742 58.7891V67.6172H47.9297V32.4023H63.5742V41.2109C63.5742 42.2852 64.4531 43.1641 65.5273 43.1641C66.6016 43.1641 67.4805 42.2852 67.4805 41.2109V30.4492C67.4805 29.375 66.6016 28.4961 65.5273 28.4961H47.9297V22.6953H68.7695L73.2812 27.207V72.793H73.2617Z" fill="white"/>
<path d="M65.5273 48.0469C64.4531 48.0469 63.5742 48.9258 63.5742 50C63.5742 51.0742 64.4531 51.9531 65.5273 51.9531C66.6016 51.9531 67.4805 51.0742 67.4805 50C67.4805 48.9062 66.6016 48.0469 65.5273 48.0469Z" fill="white"/>
</g>
<defs>
<clipPath id="clip0">
<rect width="86.5234" height="100" fill="white"/>
</clipPath>
</defs>
</svg>
