<svg width="230" height="230" viewBox="0 0 230 230" fill="none" xmlns="http://www.w3.org/2000/svg">
<g filter="url(#filter0_d)">
<circle cx="115" cy="110" r="85" fill="url(#paint0_linear)"/>
</g>
<path d="M92.8122 115.727L89.2412 114.834C86.9549 114.268 85.3654 112.221 85.3654 109.891C85.3654 107.082 87.6517 104.796 90.4605 104.796H90.7001C93.5089 104.796 95.7952 107.082 95.7952 109.891V110.022L99.2791 109.891C99.2791 105.71 96.2743 102.227 92.3114 101.465V97.8065H88.8275V101.465C84.8646 102.227 81.8597 105.71 81.8597 109.891C81.8597 113.832 84.538 117.273 88.3702 118.231L91.9412 119.123C94.2275 119.69 95.817 121.736 95.817 124.066C95.817 126.875 93.5307 129.161 90.7218 129.161H90.4823C87.6734 129.161 85.3872 126.875 85.3872 124.066V122.194H81.9033V124.066C81.9033 128.247 84.9081 131.731 88.871 132.493V136.129H92.3549V132.471C96.3178 131.709 99.3226 128.225 99.3226 124.044C99.3226 120.103 96.6444 116.685 92.8122 115.727Z" fill="white"/>
<path d="M155.065 115.226V160.516H151.581V122.194H137.645V160.516H134.161V129.161H120.226V160.516H116.415C116.611 159.972 116.742 159.384 116.742 158.774V155.29C116.742 153.94 116.219 152.743 115.392 151.806C116.219 150.87 116.742 149.673 116.742 148.323V144.839C116.742 141.965 114.39 139.613 111.516 139.613H109.687C115.131 135.019 118.745 128.595 119.856 121.54L130.677 110.719L139.387 119.428L155.065 103.751L163.099 111.785L167.737 88.6177L144.569 93.2556L152.604 101.29L139.387 114.507L130.677 105.798L120.204 116.271C120.117 109.477 117.7 102.88 113.345 97.654L104.505 87.05C106.552 86.3315 108.01 84.4153 108.01 82.129C108.01 79.2548 105.659 76.9032 102.785 76.9032H102.11L107.248 66.6258C107.727 65.646 107.989 64.5573 107.989 63.4468V63.0984C107.989 59.179 104.81 56 100.89 56H94.1621C91.571 56 89.3282 57.4153 88.0871 59.4839H80.2919C76.3726 59.4839 73.1935 62.6629 73.1935 66.5823C73.1935 67.9976 73.6073 69.3476 74.3911 70.5234L78.6589 76.9032H78.4194C75.5452 76.9032 73.1935 79.2548 73.1935 82.129C73.1935 84.4153 74.6742 86.3315 76.6992 87.05L67.8589 97.654C63.4387 102.967 61 109.695 61 116.598V116.968C61 125.786 64.9411 134.039 71.5387 139.613H69.7097C66.8355 139.613 64.4839 141.965 64.4839 144.839V148.323C64.4839 149.673 65.0065 150.87 65.8339 151.806C65.0065 152.743 64.4839 153.94 64.4839 155.29V158.774C64.4839 161.648 66.8355 164 69.7097 164H109.774H111.516H169V115.226H155.065ZM163.295 93.0597L160.965 104.731L151.624 95.3895L163.295 93.0597ZM141.129 125.677H148.097V160.516H141.129V125.677ZM123.71 132.645H130.677V160.516H123.71V132.645ZM77.2871 68.5855C76.8952 67.9758 76.6774 67.279 76.6774 66.5823C76.6774 64.579 78.2887 62.9677 80.2919 62.9677H87.1508C87.1508 63.0113 87.129 63.0548 87.129 63.0984V69.9355H90.6129V63.0984C90.6129 61.1169 92.2242 59.4839 94.2274 59.4839H100.956C102.937 59.4839 104.57 61.0952 104.57 63.0984V63.4468C104.57 64.0129 104.44 64.5573 104.178 65.0581L98.2556 76.9032H82.8395L77.2871 68.5855ZM78.4194 80.3871H102.806C103.765 80.3871 104.548 81.171 104.548 82.129C104.548 83.0871 103.765 83.871 102.806 83.871H78.4194C77.4613 83.871 76.6774 83.0871 76.6774 82.129C76.6774 81.171 77.4613 80.3871 78.4194 80.3871ZM64.4839 116.968V116.598C64.4839 110.501 66.6395 104.556 70.5371 99.875L80.9669 87.3548H100.237L110.667 99.875C114.565 104.556 116.72 110.501 116.72 116.598V116.968C116.72 126.309 111.712 134.953 103.612 139.613H77.5919C69.4919 134.953 64.4839 126.309 64.4839 116.968ZM67.9677 144.839C67.9677 143.881 68.7516 143.097 69.7097 143.097H71.4516V146.581H74.9355V143.097H78.4194V146.581H81.9032V143.097H85.3871V146.581H88.871V143.097H92.3548V146.581H95.8387V143.097H99.3226V146.581H102.806V143.097H106.29V146.581H109.774V143.097H111.516C112.474 143.097 113.258 143.881 113.258 144.839V148.323C113.258 149.281 112.474 150.065 111.516 150.065H69.7097C68.7516 150.065 67.9677 149.281 67.9677 148.323V144.839ZM109.774 160.516H69.7097C68.7516 160.516 67.9677 159.732 67.9677 158.774V155.29C67.9677 154.332 68.7516 153.548 69.7097 153.548H71.4516V157.032H74.9355V153.548H78.4194V157.032H81.9032V153.548H85.3871V157.032H88.871V153.548H92.3548V157.032H95.8387V153.548H99.3226V157.032H102.806V153.548H106.29V157.032H109.774V153.548H111.516C112.474 153.548 113.258 154.332 113.258 155.29V158.774C113.258 159.732 112.474 160.516 111.516 160.516H109.774ZM165.516 160.516H158.548V118.71H165.516V160.516Z" fill="white"/>
<defs>
<filter id="filter0_d" x="0" y="0" width="230" height="230" filterUnits="userSpaceOnUse" color-interpolation-filters="sRGB">
<feFlood flood-opacity="0" result="BackgroundImageFix"/>
<feColorMatrix in="SourceAlpha" type="matrix" values="0 0 0 0 0 0 0 0 0 0 0 0 0 0 0 0 0 0 127 0"/>
<feOffset dy="5"/>
<feGaussianBlur stdDeviation="15"/>
<feColorMatrix type="matrix" values="0 0 0 0 0.0470588 0 0 0 0 0 0 0 0 0 0.180392 0 0 0 0.3 0"/>
<feBlend mode="normal" in2="BackgroundImageFix" result="effect1_dropShadow"/>
<feBlend mode="normal" in="SourceGraphic" in2="effect1_dropShadow" result="shape"/>
</filter>
<linearGradient id="paint0_linear" x1="62" y1="175" x2="168" y2="45" gradientUnits="userSpaceOnUse">
<stop stop-color="#411881"/>
<stop offset="1" stop-color="#9B2BDC"/>
</linearGradient>
</defs>
</svg>
