<svg width="230" height="230" viewBox="0 0 230 230" fill="none" xmlns="http://www.w3.org/2000/svg">
<g filter="url(#filter0_d)">
<circle cx="115" cy="110" r="85" fill="url(#paint0_linear)"/>
</g>
<path d="M167.312 108.312H140.312V104.938H148.75C149.678 104.938 150.438 104.178 150.438 103.25C150.438 102.322 149.678 101.562 148.75 101.562H140.312V98.1875H146.662C148.434 98.1875 150.184 97.4703 151.429 96.2047L165.14 82.4937L162.756 80.1102L149.045 93.8211C148.412 94.4539 147.548 94.8125 146.662 94.8125H140.312V91.4375C140.312 87.7039 137.296 84.6875 133.562 84.6875H130.188V64.4375H126.812V84.6875H123.438V76.25C123.438 75.3219 122.678 74.5625 121.75 74.5625C120.822 74.5625 120.062 75.3219 120.062 76.25V84.6875H116.688V57.6875C116.688 56.7594 115.928 56 115 56C114.072 56 113.312 56.7594 113.312 57.6875V84.6875H109.938V76.25C109.938 75.3219 109.178 74.5625 108.25 74.5625C107.322 74.5625 106.562 75.3219 106.562 76.25V84.6875H103.188V78.3383C103.188 76.5453 102.491 74.8367 101.205 73.5711L87.4937 59.8602L85.1102 62.2438L98.8211 75.9547C99.4539 76.5875 99.8125 77.4312 99.8125 78.3383V84.6875H96.4375C92.7039 84.6875 89.6875 87.7039 89.6875 91.4375V94.8125H69.4375V98.1875H89.6875V101.562H81.25C80.3219 101.562 79.5625 102.322 79.5625 103.25C79.5625 104.178 80.3219 104.938 81.25 104.938H89.6875V108.312H62.6875C61.7594 108.312 61 109.072 61 110C61 110.928 61.7594 111.688 62.6875 111.688H89.6875V115.062H81.25C80.3219 115.062 79.5625 115.822 79.5625 116.75C79.5625 117.678 80.3219 118.438 81.25 118.438H89.6875V121.812H83.3383C81.5664 121.812 79.8156 122.53 78.5711 123.795L64.8602 137.506L67.2438 139.89L80.9547 126.179C81.5875 125.546 82.4523 125.188 83.3383 125.188H89.6875V128.562C89.6875 132.296 92.7039 135.312 96.4375 135.312H99.8125V155.562H103.188V135.312H106.562V143.75C106.562 144.678 107.322 145.438 108.25 145.438C109.178 145.438 109.938 144.678 109.938 143.75V135.312H113.312V162.312C113.312 163.241 114.072 164 115 164C115.928 164 116.688 163.241 116.688 162.312V135.312H120.062V143.75C120.062 144.678 120.822 145.438 121.75 145.438C122.678 145.438 123.438 144.678 123.438 143.75V135.312H126.812V141.662C126.812 143.455 127.509 145.163 128.795 146.429L142.506 160.14L144.89 157.756L131.179 144.045C130.546 143.412 130.188 142.569 130.188 141.662V135.312H133.562C137.296 135.312 140.312 132.296 140.312 128.562V125.188H160.562V121.812H140.312V118.438H148.75C149.678 118.438 150.438 117.678 150.438 116.75C150.438 115.822 149.678 115.062 148.75 115.062H140.312V111.688H167.312C168.241 111.688 169 110.928 169 110C169 109.072 168.241 108.312 167.312 108.312ZM136.938 128.562C136.938 130.419 135.419 131.938 133.562 131.938H96.4375C94.5812 131.938 93.0625 130.419 93.0625 128.562V91.4375C93.0625 89.5812 94.5812 88.0625 96.4375 88.0625H133.562C135.419 88.0625 136.938 89.5812 136.938 91.4375V128.562Z" fill="white"/>
<path d="M69.4375 99.875C71.3015 99.875 72.8125 98.364 72.8125 96.5C72.8125 94.636 71.3015 93.125 69.4375 93.125C67.5735 93.125 66.0625 94.636 66.0625 96.5C66.0625 98.364 67.5735 99.875 69.4375 99.875Z" fill="white"/>
<path d="M160.562 126.875C162.426 126.875 163.938 125.364 163.938 123.5C163.938 121.636 162.426 120.125 160.562 120.125C158.699 120.125 157.188 121.636 157.188 123.5C157.188 125.364 158.699 126.875 160.562 126.875Z" fill="white"/>
<path d="M66.0625 142.062C67.9265 142.062 69.4375 140.551 69.4375 138.688C69.4375 136.824 67.9265 135.312 66.0625 135.312C64.1985 135.312 62.6875 136.824 62.6875 138.688C62.6875 140.551 64.1985 142.062 66.0625 142.062Z" fill="white"/>
<path d="M163.938 84.6875C165.801 84.6875 167.312 83.1765 167.312 81.3125C167.312 79.4485 165.801 77.9375 163.938 77.9375C162.074 77.9375 160.562 79.4485 160.562 81.3125C160.562 83.1765 162.074 84.6875 163.938 84.6875Z" fill="white"/>
<path d="M128.5 67.8125C130.364 67.8125 131.875 66.3015 131.875 64.4375C131.875 62.5735 130.364 61.0625 128.5 61.0625C126.636 61.0625 125.125 62.5735 125.125 64.4375C125.125 66.3015 126.636 67.8125 128.5 67.8125Z" fill="white"/>
<path d="M101.5 158.938C103.364 158.938 104.875 157.426 104.875 155.562C104.875 153.699 103.364 152.188 101.5 152.188C99.636 152.188 98.125 153.699 98.125 155.562C98.125 157.426 99.636 158.938 101.5 158.938Z" fill="white"/>
<path d="M86.3125 64.4375C88.1765 64.4375 89.6875 62.9265 89.6875 61.0625C89.6875 59.1985 88.1765 57.6875 86.3125 57.6875C84.4485 57.6875 82.9375 59.1985 82.9375 61.0625C82.9375 62.9265 84.4485 64.4375 86.3125 64.4375Z" fill="white"/>
<path d="M143.688 162.312C145.551 162.312 147.062 160.801 147.062 158.938C147.062 157.074 145.551 155.562 143.688 155.562C141.824 155.562 140.312 157.074 140.312 158.938C140.312 160.801 141.824 162.312 143.688 162.312Z" fill="white"/>
<path d="M116.202 129.09H113.798C111.857 129.09 110.275 127.508 110.275 125.567V124.766C109.452 124.513 108.651 124.175 107.891 123.774L107.322 124.344C105.93 125.736 103.694 125.694 102.344 124.344L100.656 122.656C99.3063 121.306 99.2641 119.07 100.656 117.678L101.226 117.109C100.825 116.349 100.488 115.548 100.234 114.725H99.4328C97.4922 114.725 95.9102 113.143 95.9102 111.202V108.798C95.9102 106.857 97.4922 105.275 99.4328 105.275H100.234C100.488 104.452 100.825 103.651 101.226 102.891L100.656 102.322C99.2641 100.93 99.3063 98.6937 100.656 97.3438L102.344 95.6562C103.694 94.3063 105.93 94.2641 107.322 95.6562L107.891 96.2258C108.651 95.825 109.452 95.4875 110.275 95.2344V94.4328C110.275 92.4922 111.857 90.9102 113.798 90.9102H116.202C118.143 90.9102 119.725 92.4922 119.725 94.4328V95.2344C120.548 95.4875 121.349 95.825 122.109 96.2258L122.678 95.6562C124.07 94.2641 126.306 94.3063 127.656 95.6562L129.344 97.3438C130.694 98.6937 130.736 100.93 129.344 102.322L128.774 102.891C129.175 103.651 129.513 104.452 129.766 105.275H130.567C132.508 105.275 134.09 106.857 134.09 108.798V111.202C134.09 113.143 132.508 114.725 130.567 114.725H129.766C129.513 115.548 129.175 116.349 128.774 117.109L129.344 117.678C130.736 119.07 130.694 121.306 129.344 122.656L127.656 124.344C126.306 125.694 124.07 125.736 122.678 124.344L122.109 123.774C121.349 124.175 120.548 124.513 119.725 124.766V125.567C119.704 127.508 118.143 129.09 116.202 129.09ZM108.271 121.412C109.347 122.045 110.486 122.53 111.688 122.825C112.173 122.952 112.532 123.395 112.532 123.901V125.546C112.532 126.242 113.102 126.833 113.819 126.833H116.223C116.92 126.833 117.51 126.263 117.51 125.546V123.922C117.51 123.416 117.848 122.973 118.354 122.846C119.556 122.53 120.695 122.066 121.771 121.433C122.214 121.18 122.763 121.243 123.121 121.602L124.281 122.762C124.788 123.268 125.589 123.247 126.095 122.762L127.783 121.074C128.268 120.589 128.289 119.766 127.783 119.26L126.623 118.1C126.264 117.741 126.201 117.172 126.454 116.75C127.087 115.674 127.572 114.535 127.867 113.333C127.994 112.848 128.437 112.489 128.943 112.489H130.588C131.284 112.489 131.875 111.92 131.875 111.202V108.798C131.875 108.102 131.305 107.511 130.588 107.511H128.922C128.416 107.511 127.973 107.173 127.846 106.667C127.53 105.465 127.066 104.326 126.433 103.25C126.18 102.807 126.243 102.259 126.602 101.9L127.762 100.74C128.268 100.234 128.247 99.432 127.762 98.9258L126.074 97.2383C125.589 96.7531 124.766 96.732 124.26 97.2383L123.1 98.3984C122.741 98.757 122.172 98.8203 121.75 98.5672C120.674 97.9344 119.535 97.4492 118.333 97.1539C117.848 97.0273 117.489 96.5844 117.489 96.0781V94.4328C117.489 93.7367 116.92 93.1461 116.202 93.1461H113.798C113.102 93.1461 112.511 93.7156 112.511 94.4328V96.0781C112.511 96.5844 112.173 97.0273 111.667 97.1539C110.465 97.4703 109.326 97.9344 108.25 98.5672C107.807 98.8203 107.259 98.757 106.9 98.3984L105.74 97.2383C105.234 96.732 104.432 96.7531 103.926 97.2383L102.238 98.9258C101.753 99.4109 101.732 100.234 102.238 100.74L103.398 101.9C103.757 102.259 103.82 102.828 103.567 103.25C102.934 104.326 102.449 105.465 102.154 106.667C102.027 107.152 101.584 107.511 101.078 107.511H99.4328C98.7367 107.511 98.1461 108.08 98.1461 108.798V111.202C98.1461 111.898 98.7156 112.489 99.4328 112.489H101.078C101.584 112.489 102.027 112.827 102.154 113.333C102.47 114.535 102.934 115.674 103.567 116.75C103.82 117.193 103.757 117.741 103.398 118.1L102.238 119.26C101.732 119.766 101.753 120.568 102.238 121.074L103.926 122.762C104.411 123.247 105.234 123.268 105.74 122.762L106.9 121.602C107.174 121.327 107.723 121.095 108.271 121.412Z" fill="white" stroke="white" stroke-width="3" stroke-miterlimit="10"/>
<path d="M115 118.311C110.423 118.311 106.689 114.577 106.689 110C106.689 105.423 110.423 101.689 115 101.689C119.577 101.689 123.311 105.423 123.311 110C123.311 114.577 119.577 118.311 115 118.311ZM115 103.925C111.646 103.925 108.925 106.646 108.925 110C108.925 113.354 111.646 116.075 115 116.075C118.354 116.075 121.075 113.354 121.075 110C121.075 106.646 118.354 103.925 115 103.925Z" fill="white" stroke="white" stroke-width="3" stroke-miterlimit="10"/>
<defs>
<filter id="filter0_d" x="0" y="0" width="230" height="230" filterUnits="userSpaceOnUse" color-interpolation-filters="sRGB">
<feFlood flood-opacity="0" result="BackgroundImageFix"/>
<feColorMatrix in="SourceAlpha" type="matrix" values="0 0 0 0 0 0 0 0 0 0 0 0 0 0 0 0 0 0 127 0"/>
<feOffset dy="5"/>
<feGaussianBlur stdDeviation="15"/>
<feColorMatrix type="matrix" values="0 0 0 0 0.0470588 0 0 0 0 0 0 0 0 0 0.180392 0 0 0 0.3 0"/>
<feBlend mode="normal" in2="BackgroundImageFix" result="effect1_dropShadow"/>
<feBlend mode="normal" in="SourceGraphic" in2="effect1_dropShadow" result="shape"/>
</filter>
<linearGradient id="paint0_linear" x1="62" y1="175" x2="168" y2="45" gradientUnits="userSpaceOnUse">
<stop stop-color="#411881"/>
<stop offset="1" stop-color="#9B2BDC"/>
</linearGradient>
</defs>
</svg>
